<?xml version="1.0" encoding="utf-8"?>
<!-- Generator: Adobe Illustrator 26.0.3, SVG Export Plug-In . SVG Version: 6.00 Build 0)  -->
<svg version="1.0" id="katman_1" xmlns="http://www.w3.org/2000/svg" xmlns:xlink="http://www.w3.org/1999/xlink" x="0px" y="0px"
	 viewBox="0 0 600 450" style="enable-background:new 0 0 600 450;" xml:space="preserve">
<g id="Group_15" transform="translate(-433 -632)">
	<path id="Path_55" d="M701.2,993.1c4.3,2.3,23.8,4.9,33,4.4c-0.1-0.5-0.3-1.1-0.5-1.6c-7.9-13.8-12.3-29.3-12.9-45.1
		c-1.3-13.5-0.9-27,1.2-40.4c1.9-10.3,5-20.4,7.2-30.6c2.3-9.3,4-18.7,5.1-28.2c1.2-12.1-4.9-21-15-27.4
		c-9.3-5.8-19.8-8.5-29.9-12.2c-4.8-1.9-9.4-4.3-13.7-7.2c-3.4-2.4-5.5-6.3-5.7-10.5c-0.1-1-0.6-1.9-1.4-2.5
		c-13-5.4-18.4-16.1-20.7-29.1c-1.2-6.1-0.7-12.4,1.3-18.3c0.3-0.8,0.1-1.6-0.3-2.3c-5-4.5-4.1-9.6-1.6-14.8
		c2.8-5.8,4.5-6.8,10.9-5.9c12.8,1.8,25.4,3.9,38.2,5.7c3,0.4,6,0.5,9,0.3c3.1,0,5.9-1.7,7.4-4.4c2.6-4.4,5.4-8.7,8.4-12.8
		c1.2-1.5,2.9-2.6,4.8-3.1c13.6-2.5,27.6-2.3,41.1,0.7c9.8,1.9,19.5,4.1,29.2,6.4c6.5,1.5,11.8,6.1,14.2,12.3c0.7,1.4,2,2.4,3.6,2.6
		c7.9,2.4,15.9,4.7,23.7,7.4c7.3,2,12.3,8.8,12,16.4c0.3,12.1,1.4,24.1,1.8,36.2c0.2,6.3-1.5,12.6-4.9,18c-2.1,3.8-5.6,6.6-9.8,7.8
		c-2.6,0.9-5.4-0.5-6.3-3.1c-0.9-2.5,0.4-5.3,2.9-6.2c0.2-0.1,0.3-0.1,0.5-0.1c4.8-2.3,7.7-7.2,7.3-12.4c0.5-8.5,0.2-17-0.1-25.5
		c-0.2-4.9-1.3-9.7-1.4-14.6c0.2-3.3-2-6.3-5.2-7.1c-5.5-2-11.1-3.9-16.7-5.7c-3.4-1-7.1-1.4-10.5-2.5c-1.8-0.6-3.4-1.8-4.2-3.5
		c-1.8-6.1-6.9-10.6-13.2-11.6c-16.4-3.6-32.7-7.5-49.7-7.1c-3.1,0-6.2,0.3-9.3,0.8c-1.4,0.4-2.6,1.2-3.5,2.4
		c-2.1,2.7-4,5.5-5.6,8.5c-4.7,9-12.8,10.9-21.9,10.2c-5.9-0.5-11.8-2-17.7-2.9c-7.8-1.2-15.6-2.2-23.5-3.2c-1.2,0-2.3,0.6-3,1.5
		c-0.4,0.6,0.2,2.1,0.8,2.9c0.9,1.3,2.5,2.2,3.1,3.6c0.8,1.5,1,3.3,0.5,4.9c-5,8.6-3.3,17.2-0.2,25.7c2.5,7,8.4,12.3,15.7,14
		c5,1.5,5.6,3.2,4.5,8.2c-0.2,1.8,0.4,3.6,1.7,4.9c3.5,4,8.8,4.9,13.5,6.7c8.7,2.9,17.2,6.3,25.5,10.2
		c19.7,10.5,26.8,26.6,22.1,48.4c-3.2,14.8-7.1,29.5-10.4,44.3c-2.6,14-3.3,28.3-2,42.4c0.3,12.5,3.3,24.8,8.6,36.2
		c1.2,2.4,2.7,4.7,3.8,7.1c1.4,3.5,5.4,5.3,8.9,4c26.1-3.9,50.4-15.7,69.5-33.9c19-17.9,32.1-41.2,37.4-66.7c2-5-0.1-10.7-4.8-13.2
		c-12.4-8.5-23.1-19.3-31.6-31.7c-6.2-9.9-9.8-21.1-10.4-32.8c-0.4-5.2-0.1-10.4-0.3-15.6c-0.1-1-0.6-1.9-1.5-2.4
		c-7.9-2.7-13.7-9.4-15.3-17.5c-0.9-3.4-1.5-6.8-1.8-10.3c-0.5-2.5,1.1-5,3.7-5.5c0.3-0.1,0.5-0.1,0.8-0.1c2.7-0.3,4.6,1.9,5.3,5
		c0.9,4.5,2.1,8.9,3.6,13.2c1.2,2.1,2.7,4,4.5,5.6c0.3-2,0.4-3.1,0.6-4.1c0.3-2.5,2.4-4.4,4.9-4.3c2.6,0.1,4.7,2.2,4.8,4.8
		c-0.1,2.3,0.2,4.6,0.6,6.8c0.8,2.8,2.2,5.5,3.9,7.9c1.7,2.2,3,4,1.8,6.7c-1.2,2.7-3.5,2.9-6.3,2.7c0,9,1.7,18,5.1,26.4
		c2.4,6.4,6.2,12.2,11.1,16.9c6.7,6.4,13.5,12.8,20.2,19.2c1,0.8,2.1,1.6,3.2,2.3c0-6,0.4-11.6-0.1-17.1
		c-1.3-15.5-5.4-30.5-12.3-44.4c-1.8-2.6-1.2-6.3,1.5-8.1c0.2-0.1,0.4-0.3,0.6-0.4c3.3-1.6,6.3-0.3,8.2,3.6
		c10.2,20.6,14.9,43.4,13.7,66.3c-2.4,46.2-23,82.6-60.7,109.1c-20.2,14.3-44.1,22.5-68.8,23.8c-43.2,3.5-85.5-13.6-114-46.2
		c-18.8-20.5-30.7-46.4-34-74c-3.7-27.2,0.8-55,12.9-79.6c7-14.2,16.4-27.1,27.7-38.2c3.2-3.2,6.6-3.4,9.2-0.7
		c2.1,2.5,1.8,6.3-0.7,8.4c-0.1,0.1-0.3,0.2-0.4,0.3c-13.7,13.2-24.2,29.3-30.7,47.1c-8,21.5-10,44.7-5.9,67.3
		c0.2,0.6,0.5,1.2,0.8,1.8c2.6-8,4.2-16.4,4.9-24.8c0.3-6.9,0.9-13.7,1.5-20.6c0.5-7.4,4-14.2,9.8-18.9c2.4-2.1,3.9-5.1,4.1-8.2
		c0.9-5.2,2-10.4,3.4-15.5c1.4-4.5,4.4-8.4,8.4-11c4-2.9,7.1-1.8,8.9,2.7c1.3,3.3,2.9,6.6,4.2,9.9c1.3,2.4,0.4,5.5-2,6.8
		c-0.1,0.1-0.3,0.2-0.5,0.2c-2.6,1-5.5-0.2-6.6-2.8c-0.1-0.1-0.1-0.3-0.1-0.4c-0.6-1.5-1.4-2.8-2.5-3.9c-0.8,2.8-1.8,5.5-2.3,8.3
		c-0.8,4.1-1.2,8.3-2,12.4c-0.2,1.7-1,3.4-2.3,4.6c-7.7,6-12.1,15.3-11.8,25.1c0.1,7.1-0.4,14.2-1.5,21.2c-2,10.2-5.1,20.1-7.9,30.1
		c-0.7,1.9-0.6,4.1,0.1,6c13.3,34.3,40.7,61.2,75.2,73.9c0.7,0.3,1.3,0.4,2.5,0.7c0.9-3.7,1.8-7.3,2.5-11c3-12.3,4.6-25,4.7-37.7
		c-0.9-11.4-3.9-22.5-8.9-32.8c-2.4-5.5-5.1-10.9-7-16.5c-3.1-8.6,0-18.2,7.5-23.4c3.7-2.8,7.7-5.3,11.7-7.8c1.9-1,3.1-2.8,3.3-5
		c0.8-3.7,0.4-7.6-1.1-11.1c-0.6-1.7-0.9-3.5-0.7-5.3c0-1.7-0.3-2.7-2.2-2.7c-7.6,0.1-12-4.7-15.7-10.4c-0.8-1.5-2.4-2.4-4.1-2.2
		c-8.1,0.3-16.2,0.4-24.3,0.5c-3.8,0.1-6-1.6-6.1-4.6c-0.1-3.2,1.7-5.1,5.6-5.2c9.6-0.2,19.2-0.2,28.8-0.3c2.6-0.1,5,1.2,6.2,3.4
		c0.5,0.9,1.3,1.6,1.8,2.4c2,4.3,6.3,7,11,6.9c1.1,0.1,2.2,0.4,3.2,0.8c6.5,2,6.9,2.8,6,9.6c-0.1,1.7,0.1,3.3,0.6,4.9
		c2.1,6.7,1.8,14-1,20.5c-1.2,2.1-3,4-5.1,5.3c-3.4,2.5-7.1,4.6-10.5,7c-5.7,2.9-8,9.9-5.1,15.6c0.1,0.2,0.2,0.4,0.3,0.6
		c2.7,6.5,5.6,12.8,8.4,19.2c7.4,17.2,9.2,36.3,5.2,54.7C704.7,974.8,703,983.9,701.2,993.1"/>
	<path id="Path_57" d="M667.7,837.1c0.1-1.9,0.3-3.9,3.1-4c2.3-0.1,4.7,3.1,4.6,6.4c0,2-0.5,3.9-3,4.1
		C670,843.7,667.7,840.6,667.7,837.1"/>
	<path id="Path_58" d="M753.6,741.6c0,3.3-2.2,6.5-4.6,6.4c-2.6-0.1-3.1-2.1-3.1-4.3c0-3.3,2.3-6.3,4.8-6.2
		C752.6,737.6,753.6,739,753.6,741.6"/>
</g>
</svg>
