<?xml version="1.0" standalone="yes"?>
<svg xmlns="http://www.w3.org/2000/svg" xmlns:xlink="http://www.w3.org/1999/xlink" xmlns:svg="http://www.w3.org/2000/svg" xmlns:dc="http://purl.org/dc/elements/1.1/" xmlns:cc="http://web.resource.org/cc/" xmlns:rdf="http://www.w3.org/1999/02/22-rdf-syntax-ns#" width="315" height="247">
<path style="fill:#ffffff; stroke:none;" d="M0 0L0 52C0 57.4552 -1.99292 67.8843 1.02778 72.6096C7.62431 82.9285 24.254 76.0748 32 72C20.918 81.1053 12.4951 78.572 0 75L0 247L315 247L315 192C305.997 194.854 299.617 193.324 291 190L291 189C296.931 191.284 307.543 195.699 313.397 190.836C316.457 188.293 315 180.545 315 177L315 136C309.992 136.976 306.452 137.327 306 143L311 143L311 144L305 144L305 136L315 135L315 0L281 0C281.918 8.96245 288.402 16.4461 297 19C284.464 18.982 284.556 0.928513 274.981 0.0586395C245.195 -2.64717 213.922 0 184 0L0 0z"/>
<path style="fill:#eae9e9; stroke:none;" d="M279 0C281.685 9.26047 286.754 18.1442 297 20L297 19L279 0M67 7L67 8L81 7L67 7M241 8L241 9L254 8L241 8M188 21L188 29L198 30L198 29L189 28L189 22C195.277 21.9473 200.758 20.9353 205 16L188 21M246 22L246 28L238 29L238 30L247 29L246 22z"/>
<path style="fill:#b19b93; stroke:none;" d="M204.667 38.3333L205.333 38.6667L204.667 38.3333z"/>
<path style="fill:#613323; stroke:none;" d="M197 62C189.423 51.809 197.614 42.0794 210 42.0802C217.748 42.0807 223.606 47.4575 227 54C230.71 53.4045 232.806 52.6868 234 49L229 50C223.322 33.3445 197.62 35.1897 189.653 49.0394C186.118 55.1839 189.237 63.7143 197 62z"/>
<path style="fill:#c6b6b0; stroke:none;" d="M215.667 38.3333L216.333 38.6667L215.667 38.3333z"/>
<path style="fill:#eae9e9; stroke:none;" d="M67 42L67 43L81 44C76.9815 40.2346 72.0855 40.7893 67 42z"/>
<path style="fill:#bca9a2; stroke:none;" d="M197 41L198 42L197 41z"/>
<path style="fill:#b19b93; stroke:none;" d="M222 41L223 42L222 41z"/>
<path style="fill:#eae9e9; stroke:none;" d="M296 63C291.506 50.3398 296.511 41.2088 311 43C298.714 34.6067 285.075 53.3588 296 63z"/>
<path style="fill:#d7a55f; stroke:none;" d="M193 59L213 54L213 58L214 58L214 55C219.388 57.5768 221.466 56.9613 227 55C223.126 35.7976 188.463 39.192 193 59z"/>
<path style="fill:#eae9e9; stroke:none;" d="M269 42L270 62L271 62C272.53 55.5724 273.115 47.5299 269 42z"/>
<path style="fill:#a79088; stroke:none;" d="M193 44L194 45L193 44M191 46L192 47L191 46z"/>
<path style="fill:#eae9e9; stroke:none;" d="M3 47L4 61L5 61L3 47z"/>
<path style="fill:#d0c2bd; stroke:none;" d="M234 48L234 49L240 49L234 48z"/>
<path style="fill:#c6b6b0; stroke:none;" d="M229.667 49.3333L230.333 49.6667L229.667 49.3333z"/>
<path style="fill:#8b5c38; stroke:none;" d="M234 49L233 53L240 53L240 52L234 49z"/>
<path style="fill:#613323; stroke:none;" d="M235 49L235 52C241.138 52.5359 247.427 54.584 251.815 59.1049C254.127 61.4872 255.605 66.2759 258.495 67.8681C261.185 69.3498 265.263 66.9781 268 66.4676C272.741 65.5833 277.281 66.6276 282 67C278.794 59.0244 268.422 65.2114 262.21 63.2269C258.624 62.0813 256.729 56.8932 253.907 54.5293C248.416 49.9308 241.896 49.019 235 49z"/>
<path style="fill:#c6b6b0; stroke:none;" d="M243.667 49.3333L244.333 49.6667L243.667 49.3333z"/>
<path style="fill:#c3894b; stroke:none;" d="M214 58L213 58L213 54L195 59L195 60C199.173 59.9885 211.564 55.8286 213.828 60.4336C215.915 64.6782 205.278 76.2506 202.997 80C191.254 99.3057 169.215 105.994 169 132L170 132L177 108L178 108L178 113L179 113C184.553 105.281 193.176 100.986 202 98C198.358 81.1996 221.563 60.3848 235 54L214 58z"/>
<path style="fill:#d7a55f; stroke:none;" d="M202 98C193.444 100.028 182.942 104.722 179 113L178 113L178 108L177 108C176.792 116.859 170.706 123.373 169.429 132C167.704 143.653 175.809 161.775 190 158.606C199.054 156.585 206.617 146.313 209.628 138C212.311 130.593 200.928 121.054 199.713 113C198.814 107.043 203.709 103.168 209 101.638C219.077 98.7252 241.458 106.327 241.548 119C241.624 129.808 224.322 134.637 216 135C216 145.297 214.199 156.926 220.133 165.985C230.367 181.612 252.045 171.805 258.673 158C263.622 147.692 264.212 135.915 260.958 125C259.558 120.306 256.141 115.84 255.484 111C254.843 106.281 257.466 100.715 258.13 96C258.692 92.0185 258.502 75.7728 263.144 74.9977C275.632 72.9124 266.067 97.4336 278.985 95.5733C286.966 94.424 288.231 80.0433 286.566 74.0008C282.542 59.387 267.52 70.7381 259.274 67.5965C251.792 64.7458 251.425 54.3501 241 53.189C224.688 51.3724 197.381 81.9151 202 98z"/>
<path style="fill:#b19b93; stroke:none;" d="M252 53L253 54L252 53z"/>
<path style="fill:#613323; stroke:none;" d="M83 70L86.3588 95L91.5772 108.985L84 118.039L68 136C66.6946 125.891 60.8914 107.196 50 104C51.1762 112.8 59.3808 120.504 62.5748 129C68.3317 144.312 63.7455 160.741 69.9228 176C73.0655 183.763 78.95 190.937 88 189L87 206C67.6113 199.398 56.1955 183.239 54.1705 163C53.1922 153.222 55.365 143.449 51.946 134C49.2207 126.468 45.4958 119.405 40.6605 113C38.9931 110.791 34.9191 107.363 35.5918 104.228C36.9299 97.9939 46.1381 103.822 49 105L50 101C44.2707 98.0872 27.454 94.0087 31.3333 107C32.0397 109.366 37.1068 117.751 39 115L40 115C40.5978 126.054 49.3052 135.537 50.7137 147C52.8697 164.545 48.0078 180.712 48 198C47.9962 206.512 36.8196 217.519 43.3179 224.671C51.567 233.751 69.5958 235.396 81 237.246C84.7356 237.852 91.1491 239.619 94.7755 238.307C102.346 235.568 96.156 225.353 107 225L109 237L108 237L106 227L101 227L98 239L136 240L151.606 238.972L156 227L147 227C143.863 202.176 167.694 190.686 189 186.4C195.688 185.054 206.124 186.979 211 182C203.785 179.867 176.945 179.811 175 189L170 186L160 193C160 184.344 163.739 163.803 155 159L154 160C157.262 174.264 161.914 199.305 143.91 206.687C139.371 208.548 132.751 206.204 128 206C136.628 191.667 142.396 171.016 119 171L119 174C121.356 174.05 123.762 174.022 125.998 174.894C143.549 181.736 123.483 200.133 121 209L143 211C143.001 221.043 147.465 229.952 138 237L143 227C120.452 227 86.9603 225.438 90.1744 194C90.5412 190.412 91.1148 184.333 93.1752 181.318C95.8548 177.396 104.778 178.598 108.985 175.867C120.398 168.458 122 154.309 122 142C133.612 144.765 143.906 138.859 154 134L167.08 170L173 186C172.967 173.921 169.539 161.229 165.189 150C162.649 143.445 157.069 136.153 158 129L162 130C160.199 124.376 161.9 116.846 168 115C161.806 134.042 165.934 167.025 193 162L202 170L196 160C202.936 156.402 207.704 149.968 211 143L212 143L215 167L203 167C204.454 175.714 212.455 169.172 218 171.186C222.346 172.765 225.27 176.58 230 177.61C243.632 180.578 258.931 169.742 263 157L264 157L270 174L271 174L265.895 150L265.331 128L259.561 110L263 84C269.158 89.4153 268.37 99.2761 278.996 98.9406C289.326 98.6144 295.483 78.7982 287 73C288.014 78.5431 286.063 99.1819 276.044 94.7623C272.097 93.0214 267.394 74.2436 260.988 81.6042C258.071 84.9562 258.504 92.7822 257.866 97C257.175 101.568 254.769 106.343 255.253 111C255.762 115.901 259.125 120.354 260.64 125C264.025 135.374 263.527 146.025 259.123 156C254.2 167.153 238.128 179.735 226.015 171.196C218.41 165.835 216.008 156.776 215.17 148C213.296 128.393 234.221 137.939 240.91 122.961C243.692 116.73 238.906 110.546 233.961 107.105C224.214 100.322 212.669 99.6537 202 104L203 109C211.423 103.215 236.912 104.358 237.248 118.999C237.546 131.967 215.857 130.97 209 128L208 129C214.241 145.986 188.083 169.767 174.638 150.999C164.134 136.337 169.063 114.482 181.326 102.329C185.453 98.2383 191.564 96.7327 195.586 92.6103C199.945 88.1419 202.704 81.2621 206.054 76C208.574 72.0414 214.166 66.9447 214.549 62.1088C215.259 53.1298 199.414 61.0282 197 64L210 62C206.098 68.8498 198.165 86.5902 190.896 89.8017C184.663 92.5551 169.313 88 162 88L158 57C147.675 59.0547 141.005 69.6091 131 72.49C113.614 77.496 100.042 70.7787 83 70z"/>
<path style="fill:#8f6f64; stroke:none;" d="M158.333 59.6667L158.667 60.3333L158.333 59.6667z"/>
<path style="fill:#745144; stroke:none;" d="M196 60L194 63L194 64L200 60L196 60z"/>
<path style="fill:#987c71; stroke:none;" d="M159.333 62.6667L159.667 63.3333L159.333 62.6667z"/>
<path style="fill:#d0c2bd; stroke:none;" d="M206.667 62.3333L207.333 62.6667L206.667 62.3333z"/>
<path style="fill:#a1887e; stroke:none;" d="M267 62L267 63L271 63L267 62z"/>
<path style="fill:#7d5c51; stroke:none;" d="M271 62L271 63L279 63L271 62z"/>
<path style="fill:#f7b12b; stroke:none;" d="M140 83L110 79.6104L87 75L99.3966 98.0394L102 122L111 121L104 125C106.685 130.303 109.862 129.451 114 126L115 127L111 133C116.784 135.763 126.468 132.216 124.292 124.09C123.41 120.793 118.757 118.807 119.542 115.001C120.93 108.27 131.193 106.519 135.836 110.514C142.546 116.285 129.339 122.437 138.044 129.606C144.115 134.605 149.66 132.745 155 128L155 127L145 118L157 125L160 115L147 115L147 112L161 112L157.383 93L156 63C148.895 65.1849 142.18 76.1573 140 83z"/>
<path style="fill:#bca9a2; stroke:none;" d="M202.667 63.3333L203.333 63.6667L202.667 63.3333z"/>
<path style="fill:#987c71; stroke:none;" d="M263.667 63.3333L264.333 63.6667L263.667 63.3333z"/>
<path style="fill:#c6b6b0; stroke:none;" d="M281.667 63.3333L282.333 63.6667L281.667 63.3333z"/>
<path style="fill:#745144; stroke:none;" d="M281 64C281.946 66.7791 289.432 79.1321 291 72C287.195 70.9301 284.526 67.9552 284 64L281 64z"/>
<path style="fill:#e69a07; stroke:none;" d="M122 76L122 77L137 78L137 79L133 80L140 83L152 65C140.453 69.3766 135.083 76 122 76z"/>
<path style="fill:#613323; stroke:none;" d="M283 65L290 73C289.111 68.6088 287.353 66.2522 283 65z"/>
<path style="fill:#b3a19b; stroke:none;" d="M207 66L208 67L207 66z"/>
<path style="fill:#a1887e; stroke:none;" d="M83.6667 69.3333L84.3333 69.6667L83.6667 69.3333z"/>
<path style="fill:#d4cbc8; stroke:none;" d="M82 70L82 78L83 78L82 70z"/>
<path style="fill:#a1887e; stroke:none;" d="M161.333 70.6667L161.667 71.3333L161.333 70.6667M91.6667 71.3333L92.3333 71.6667L91.6667 71.3333z"/>
<path style="fill:#eae9e9; stroke:none;" d="M0 73C6.55485 82.9991 25.1803 79.9546 32 72C18.8924 76.77 13.3643 78.5552 0 73z"/>
<path style="fill:#c6b6b0; stroke:none;" d="M96.6667 72.3333L97.3333 72.6667L96.6667 72.3333z"/>
<path style="fill:#7d5c51; stroke:none;" d="M121 72L121 73L133 73L121 72z"/>
<path style="fill:#c6b6b0; stroke:none;" d="M100.667 73.3333L101.333 73.6667L100.667 73.3333z"/>
<path style="fill:#b77939; stroke:none;" d="M86 76L89 75L86 76z"/>
<path style="fill:#c6b6b0; stroke:none;" d="M104.667 74.3333L105.333 74.6667L104.667 74.3333z"/>
<path style="fill:#c58627; stroke:none;" d="M158 74L158 87L159 87L158 74z"/>
<path style="fill:#c3894b; stroke:none;" d="M260 81C265.417 79.8853 268.217 81.8176 270 87C273.906 77.6672 260.405 68.6667 260 81z"/>
<path style="fill:#bca9a2; stroke:none;" d="M108.667 75.3333L109.333 75.6667L108.667 75.3333z"/>
<path style="fill:#a1887e; stroke:none;" d="M162 75L162 88L170 88L170 87L163 87L162 75z"/>
<path style="fill:#a36a26; stroke:none;" d="M287 75L287 82L288 82L287 75z"/>
<path style="fill:#bca9a2; stroke:none;" d="M291 75L291 82L292 82L291 75z"/>
<path style="fill:#e69a07; stroke:none;" d="M87 76L95.3009 105L99 124L104 123L104 122L99.6821 98.0394L92.1335 87.9961L87 76z"/>
<path style="fill:#ffffff; stroke:none;" d="M227 85C231.535 72.4439 217.153 78.333 227 85z"/>
<path style="fill:#db9f27; stroke:none;" d="M116 78L116 79L137 79L116 78z"/>
<path style="fill:#b3a19b; stroke:none;" d="M198 80L199 81L198 80z"/>
<path style="fill:#8f6f64; stroke:none;" d="M83 81L83 84L84 84L83 81z"/>
<path style="fill:#d4cbc8; stroke:none;" d="M221 81L224 83L224 82L221 81z"/>
<path style="fill:#613323; stroke:none;" d="M221.299 84.0864C218.016 86.017 219.776 92.2277 223.585 89.9136C226.829 87.9425 225.25 81.7632 221.299 84.0864z"/>
<path style="fill:#ffffff; stroke:none;" d="M244 92C249.748 79.976 233.387 84.814 244 92z"/>
<path style="fill:#bca9a2; stroke:none;" d="M263 84L263 87L264 87L263 84z"/>
<path style="fill:#b19b93; stroke:none;" d="M290.333 84.6667L290.667 85.3333L290.333 84.6667z"/>
<path style="fill:#e4b151; stroke:none;" d="M121 88L121 89L144 90C137.704 84.4999 128.394 85.656 121 88z"/>
<path style="fill:#bca9a2; stroke:none;" d="M266.333 87.6667L266.667 88.3333L266.333 87.6667z"/>
<path style="fill:#c6b6b0; stroke:none;" d="M84.3333 88.6667L84.6667 89.3333L84.3333 88.6667z"/>
<path style="fill:#b3a19b; stroke:none;" d="M177 88L177 89L180 89L177 88z"/>
<path style="fill:#d4cbc8; stroke:none;" d="M238.333 88.6667L238.667 89.3333L238.333 88.6667z"/>
<path style="fill:#d0c2bd; stroke:none;" d="M289.333 88.6667L289.667 89.3333L289.333 88.6667z"/>
<path style="fill:#b19b93; stroke:none;" d="M183 89L183 90L186 90L183 89z"/>
<path style="fill:#ffffff; stroke:none;" d="M217 89C217.652 92.9108 219.136 93.6998 223 94L217 89z"/>
<path style="fill:#a79088; stroke:none;" d="M239.667 89.3333L240.333 89.6667L239.667 89.3333z"/>
<path style="fill:#b0731d; stroke:none;" d="M157.333 90.6667L157.667 91.3333L157.333 90.6667z"/>
<path style="fill:#d4cbc8; stroke:none;" d="M188 90L188 91L192 91L188 90z"/>
<path style="fill:#613323; stroke:none;" d="M238.299 91.0864C235.016 93.017 236.776 99.2277 240.585 96.9136C243.829 94.9425 242.25 88.7631 238.299 91.0864z"/>
<path style="fill:#d7a55f; stroke:none;" d="M161 91L165 113L169 114L185 94L161 91z"/>
<path style="fill:#8b5c38; stroke:none;" d="M171 91L171 92L175 92L171 91z"/>
<path style="fill:#dfd3d1; stroke:none;" d="M221 91L221 92L224 93L221 91z"/>
<path style="fill:#b3a19b; stroke:none;" d="M262 91L262 94L263 94L262 91z"/>
<path style="fill:#ebd2b0; stroke:none;" d="M219 94L219 95L222 95L219 94z"/>
<path style="fill:#b0731d; stroke:none;" d="M136 95L136 96L139 96L136 95z"/>
<path style="fill:#ffffff; stroke:none;" d="M235 95C235.324 99.1617 237.965 102.639 241 98L235 95z"/>
<path style="fill:#613323; stroke:none;" d="M135 96L135 99L148 104C146.17 97.5542 141.183 96.1324 135 96z"/>
<path style="fill:#987c71; stroke:none;" d="M261 96L261 99L262 99L261 96z"/>
<path style="fill:#a79088; stroke:none;" d="M285 96L286 97L285 96z"/>
<path style="fill:#d0c2bd; stroke:none;" d="M42.6667 97.3333L43.3333 97.6667L42.6667 97.3333z"/>
<path style="fill:#ebd2b0; stroke:none;" d="M234.333 97.6667L234.667 98.3333L234.333 97.6667z"/>
<path style="fill:#eae9e9; stroke:none;" d="M9 99L9 100L21 100L9 99z"/>
<path style="fill:#a79088; stroke:none;" d="M34 98L35 99L34 98z"/>
<path style="fill:#613323; stroke:none;" d="M108 110L110 110L119 99C112.617 99.3494 106.7 102.945 108 110z"/>
<path style="fill:#987c71; stroke:none;" d="M276 99L276 100L281 100L276 99z"/>
<path style="fill:#b3a19b; stroke:none;" d="M48 100L49 101L48 100z"/>
<path style="fill:#b77939; stroke:none;" d="M41 114L47 113L52 110C43.7762 98.3589 28.2947 100.153 41 114z"/>
<path style="fill:#a79088; stroke:none;" d="M89 101L90 102L89 101z"/>
<path style="fill:#7d5c51; stroke:none;" d="M50 102L49 107L52 103L50 102z"/>
<path style="fill:#bca9a2; stroke:none;" d="M260.333 102.667L260.667 103.333L260.333 102.667z"/>
<path style="fill:#eae9e9; stroke:none;" d="M270 102L270 120L271 120C272.349 114.332 273.094 107.165 270 102z"/>
<path style="fill:#bca9a2; stroke:none;" d="M30 103L30 107L31 107L30 103z"/>
<path style="fill:#8f6f64; stroke:none;" d="M164 104L164 113L165 113L164 104z"/>
<path style="fill:#7d5c51; stroke:none;" d="M201 105L200 117C203.978 114.189 203.567 108.758 201 105z"/>
<path style="fill:#94532a; stroke:none;" d="M210 126C208.822 114.245 204.687 106.146 221 106C205.148 99.3483 197.923 115.62 210 126z"/>
<path style="fill:#a96737; stroke:none;" d="M206 129C210.78 129.642 215.164 132.311 220 131.246C223.383 130.501 226.921 129.461 230 127.862C250.688 117.119 219.744 97.6868 208.603 108.97C203.387 114.252 211.301 122.487 206 129z"/>
<path style="fill:#613323; stroke:none;" d="M200 107L200 116L201 116L200 107z"/>
<path style="fill:#a79088; stroke:none;" d="M33 110L34 111L33 110z"/>
<path style="fill:#f7b12b; stroke:none;" d="M47 113L42 112L54 151C65.0352 142.782 59.1868 134.896 53 126C58.0912 131.137 64.3964 137.236 60.5432 145C58.4596 149.199 54.2177 151.956 54.1489 157C53.9814 169.29 61.5588 182.22 68 192L64 191L64 192L86 202L87 191C58.5228 181.787 70.6184 148.965 62.6111 128C60.5907 122.71 58.1861 116.041 53.9167 112.111C51.2085 109.618 47.8259 109.146 47 113z"/>
<path style="fill:#a96737; stroke:none;" d="M122 115L122 116C127.726 121.068 132.365 120.722 135 113C129.899 111.789 126.417 112.084 122 115z"/>
<path style="fill:#8b5c38; stroke:none;" d="M138 112L138 116L139 116L138 112z"/>
<path style="fill:#94532a; stroke:none;" d="M147 112L147 113L156 113L156 114L147 114L147 115L161 113L147 112z"/>
<path style="fill:#b19b93; stroke:none;" d="M59 113L60 114L59 113z"/>
<path style="fill:#bca9a2; stroke:none;" d="M89 113L90 114L89 113z"/>
<path style="fill:#745144; stroke:none;" d="M119 113C118.356 116.955 119.497 119.058 123 121L119 113z"/>
<path style="fill:#613323; stroke:none;" d="M147 113L147 114L156 114L147 113M203 114C200.414 119.649 202.47 125.127 208 128L209 127L203 114z"/>
<path style="fill:#7d5c51; stroke:none;" d="M39 115L39 119L40 119L39 115z"/>
<path style="fill:#d7a55f; stroke:none;" d="M162 130L158 129C156.357 135.802 161.882 142.794 164.396 149C169.03 160.441 172.896 173.6 173 186C186.041 184.863 197.584 178.806 211 182C195.239 193.337 163.489 187.88 156.305 212C154.872 216.81 155.617 221.136 156 226L157 226L159 210L161 210L161 227L168 227C168.004 221.427 167.545 215.936 173 213L172 227C196.703 226.796 222.882 224.488 247 219.011C254.558 217.294 267.391 215.131 271.682 207.815C279.36 194.725 268.825 169.439 264 157L263 157C255.88 171.968 233.077 193.195 218 175C213.354 175.696 208.767 178.383 204 177.771C198.496 177.064 195.99 172.6 191.576 170.023C186.529 167.078 180.967 167.369 176.09 163.319C161.976 151.598 164.379 130.652 168 115C161.63 116.06 159.369 124.647 162 130z"/>
<path style="fill:#c3894b; stroke:none;" d="M92 116C84.44 123.236 72.059 132.314 69.419 143C68.2253 147.832 69.899 153.106 70 158L71 158L76 143C79.4422 141.11 80.9073 138.928 81 135C85.8681 132.336 95.2159 121.544 92 116z"/>
<path style="fill:#a36a26; stroke:none;" d="M145.667 118.333L146.333 118.667L145.667 118.333z"/>
<path style="fill:#d7a55f; stroke:none;" d="M93 120L81 135L76 143C75.6468 148.752 71.1981 153.273 70.3434 159C68.62 170.547 76.2759 184.884 88 187C88.8181 176.983 85.2648 173.41 83.3789 164C80.8132 151.199 87.2246 137.882 98 131L97 127L91 128L96 125L93 120z"/>
<path style="fill:#8f6f64; stroke:none;" d="M263.333 120.667L263.667 121.333L263.333 120.667z"/>
<path style="fill:#7d5c51; stroke:none;" d="M123 121L125 125L128 124L128 123L123 121z"/>
<path style="fill:#b3a19b; stroke:none;" d="M42 123L43 124L42 123z"/>
<path style="fill:#987c71; stroke:none;" d="M264.333 123.667L264.667 124.333L264.333 123.667z"/>
<path style="fill:#e69a07; stroke:none;" d="M102 125C101.732 129.616 104.806 133.88 109 130L104 125L102 125M129 125L126 133L135 132L129 125z"/>
<path style="fill:#e4b151; stroke:none;" d="M53 126L60.4205 139L54 153C64.8788 145.152 63.4847 133.452 53 126z"/>
<path style="fill:#a1887e; stroke:none;" d="M265.333 127.667L265.667 128.333L265.333 127.667z"/>
<path style="fill:#a79088; stroke:none;" d="M74 128L75 129L74 128z"/>
<path style="fill:#a96737; stroke:none;" d="M181 129L181 131L186 131L186 129L181 129z"/>
<path style="fill:#987c71; stroke:none;" d="M67.3333 131.667L67.6667 132.333L67.3333 131.667z"/>
<path style="fill:#b19b93; stroke:none;" d="M266 131L266 135L267 135L266 131z"/>
<path style="fill:#e69a07; stroke:none;" d="M110 132L108 136L118 136L118 135L110 132z"/>
<path style="fill:#f7b12b; stroke:none;" d="M139 134C136.944 133.171 135.252 132.507 132.995 132.554C115.079 132.927 132.466 146.993 139 134z"/>
<path style="fill:#a79088; stroke:none;" d="M70 133L71 134L70 133z"/>
<path style="fill:#d7a55f; stroke:none;" d="M108 172L108 170L99 165L99 163L112 168L117 157L105 150L118 153L117 140L99 141L103 137C99.2194 130.588 92.7868 138.766 90.5725 143C84.461 154.685 92.681 176.202 108 172z"/>
<path style="fill:#a47451; stroke:none;" d="M195 133L195 137L199 133L195 133z"/>
<path style="fill:#f7b12b; stroke:none;" d="M153 134C143.106 139.187 133.164 144.946 122 142C122 151.888 120.507 175.512 109 179L97 183L97 211L91 207C98.1525 218.599 110.175 210.442 118 205C111.965 210.981 107.59 213.975 99 214C106.049 230.287 128.33 226 143 226L143 211L121 209C123.981 202.57 143.571 179.622 126.985 175.318C124.476 174.667 121.57 175 119 175L119 171C133.86 171.041 136.268 179.028 136 192L142 191L142 192C134.176 193.821 130.997 198.769 128 206C132.731 206.373 140.409 208.991 144.83 206.883C161.091 199.128 158.36 173.726 154 160L155 159C164.282 166.706 160.215 182.562 160 193C162.794 191.835 167.015 190.584 168.396 187.61C169.942 184.278 168.264 179.488 168.025 176C167.124 162.886 161.469 144.222 153 134z"/>
<path style="fill:#987c71; stroke:none;" d="M266 135L266 144L267 144L266 135z"/>
<path style="fill:#eae9e9; stroke:none;" d="M305 136L305 144L311 144L311 143L306 143C306.859 137.739 310.318 137.229 315 136L305 136z"/>
<path style="fill:#8b5c38; stroke:none;" d="M143 136L143 137L148 137L143 136z"/>
<path style="fill:#a77948; stroke:none;" d="M215 136L215 151L216 151L215 136z"/>
<path style="fill:#a1887e; stroke:none;" d="M49.3333 139.667L49.6667 140.333L49.3333 139.667z"/>
<path style="fill:#94532a; stroke:none;" d="M65 139L65 148L66 148L65 139z"/>
<path style="fill:#a96737; stroke:none;" d="M184 142L184 144L188 145L188 141L184 142M228 142L228 146L232 146L228 142z"/>
<path style="fill:#a47451; stroke:none;" d="M126 143L126 144L132 144L126 143z"/>
<path style="fill:#c3894b; stroke:none;" d="M166 143C167.358 159.625 176.39 163.748 189.83 169.589C193.37 171.127 195.512 174.792 199.001 176.543C205.43 179.77 211.666 176.5 218 175C226.093 189.753 248.792 179.015 256 169C247.531 172.768 240.18 180.3 230 177.362C225.472 176.055 222.404 171.931 218 170.69C212.164 169.045 205.511 175.27 203 167L202 167L202 170L193 162C177.114 164.006 173.48 154.827 166 143z"/>
<path style="fill:#a96737; stroke:none;" d="M211 143L203 155L213 158L211 143z"/>
<path style="fill:#8f6f64; stroke:none;" d="M50 145L50 157L51 157L50 145z"/>
<path style="fill:#c3894b; stroke:none;" d="M87 147C87.7036 160.42 85.4805 178.647 105 174L105 173C97.7786 171.264 91.7692 166.373 89.6381 159C88.4854 155.012 90.2928 149.877 87 147z"/>
<path style="fill:#a96737; stroke:none;" d="M241 147L241 151L245 150L245 148L241 147z"/>
<path style="fill:#c58627; stroke:none;" d="M65 148L65 154L66 154L65 148z"/>
<path style="fill:#b19b93; stroke:none;" d="M265 149L265 152L266 152L265 149z"/>
<path style="fill:#d7a55f; stroke:none;" d="M196 160C199.97 168.313 207.02 168.009 215 167C214.462 155.44 204.11 154.09 196 160z"/>
<path style="fill:#a96737; stroke:none;" d="M230 159L234 159L234 155L230 159z"/>
<path style="fill:#a79088; stroke:none;" d="M50 157L50 165L51 165L50 157z"/>
<path style="fill:#eae9e9; stroke:none;" d="M281 159C278.727 167.786 279.469 175.029 284 183L285 183L281 159z"/>
<path style="fill:#94532a; stroke:none;" d="M54 160L54 166L55 166L54 160z"/>
<path style="fill:#e69a07; stroke:none;" d="M55 164C55.0788 173.394 58.0694 188.543 68 192L55 164z"/>
<path style="fill:#7d5c51; stroke:none;" d="M271 165L270 176L271 176L271 165z"/>
<path style="fill:#e69a07; stroke:none;" d="M117 166C113.366 171.807 108.717 176.611 102 178.714C99.5662 179.476 95.7843 178.553 93.7415 180.066C85.441 186.216 90.0489 206.248 97 211L97 183C101.67 182.987 106.204 183.214 109 179C114.349 178.065 118.864 171.386 117 166z"/>
<path style="fill:#a79088; stroke:none;" d="M51.3333 168.667L51.6667 169.333L51.3333 168.667z"/>
<path style="fill:#613323; stroke:none;" d="M272 170C271.165 180.591 276.736 193.952 273.297 203.996C267.892 219.781 237.467 220.463 224 223L224 232L266.961 219.681L280.253 208.996L276.166 188L272 170z"/>
<path style="fill:#a36a26; stroke:none;" d="M160 171L160 187L161 187L160 171M119 174L119 175L126 175L119 174z"/>
<path style="fill:#b19b93; stroke:none;" d="M274.333 175.667L274.667 176.333L274.333 175.667z"/>
<path style="fill:#a1887e; stroke:none;" d="M50.3333 176.667L50.6667 177.333L50.3333 176.667z"/>
<path style="fill:#c58627; stroke:none;" d="M168 176L168 181L169 181L168 176z"/>
<path style="fill:#b0731d; stroke:none;" d="M97 179L97 180L101 180L97 179z"/>
<path style="fill:#b19b93; stroke:none;" d="M49.3333 180.667L49.6667 181.333L49.3333 180.667z"/>
<path style="fill:#a36a26; stroke:none;" d="M136 180L136 186L137 186L136 180z"/>
<path style="fill:#b19b93; stroke:none;" d="M275.333 180.667L275.667 181.333L275.333 180.667z"/>
<path style="fill:#c3894b; stroke:none;" d="M53 181C52.0826 188.259 49.1581 202.451 53.7423 208.79C57.7012 214.264 66.8275 216.349 73 218L69 215L69 214L71 213C65.4331 203.209 62.8889 187.692 53 181z"/>
<path style="fill:#745144; stroke:none;" d="M169 183L169 189L170 189L170 186L175 189L175 186L169 183z"/>
<path style="fill:#a79088; stroke:none;" d="M48 185L48 189L49 189L48 185z"/>
<path style="fill:#c3894b; stroke:none;" d="M147 227C150.884 227 157.018 228.581 158 224L157 224L157 226L156 226C154.92 200.447 177.859 191.076 200 186C194.438 183.688 186.614 186.513 181 188.001C161.989 193.038 142.939 205.127 147 227z"/>
<path style="fill:#a77948; stroke:none;" d="M272 185L272 189L273 189L272 185z"/>
<path style="fill:#d0c2bd; stroke:none;" d="M276.333 185.667L276.667 186.333L276.333 185.667z"/>
<path style="fill:#7d5c51; stroke:none;" d="M276 187L276 191L277 191L276 187z"/>
<path style="fill:#a36a26; stroke:none;" d="M85 191L88 189L85 191z"/>
<path style="fill:#eae9e9; stroke:none;" d="M291 189L291 190C298.613 194.012 306.904 195.416 315 192L315 191C305.763 192.791 299.926 191.436 291 189z"/>
<path style="fill:#e4b151; stroke:none;" d="M135 190L135 194L142 192L142 191L135 190z"/>
<path style="fill:#a96737; stroke:none;" d="M51 192L51 205L52 205L51 192z"/>
<path style="fill:#a36a26; stroke:none;" d="M86 192L86 203L87 203L86 192z"/>
<path style="fill:#a47451; stroke:none;" d="M273 192L273 205L274 205L273 192z"/>
<path style="fill:#e69a07; stroke:none;" d="M66 193C70.9439 199.869 78.8499 204.064 87 206C84.998 199.757 72.2747 193.469 66 193z"/>
<path style="fill:#b0731d; stroke:none;" d="M155 193L155 196L156 196L155 193z"/>
<path style="fill:#c6b6b0; stroke:none;" d="M47 195L47 209L48 209L47 195M277 196L277 200L278 200L277 196z"/>
<path style="fill:#d7a55f; stroke:none;" d="M66 200L69 214L69 215C77.9574 219.226 85.7824 221.915 96 222C88.4119 210.856 78.4657 205.173 66 200z"/>
<path style="fill:#eae9e9; stroke:none;" d="M6 203L6 204L20 202L6 203z"/>
<path style="fill:#e4b151; stroke:none;" d="M97 212L97 213C106.023 215.148 112.591 212.61 118 205C109.628 208.88 106.854 213.239 97 212z"/>
<path style="fill:#b19b93; stroke:none;" d="M46 209L47 210L46 209z"/>
<path style="fill:#e69a07; stroke:none;" d="M92 210C94.4682 215.184 97.576 218.893 103 221C100.21 215.718 97.752 212.129 92 210z"/>
<path style="fill:#613323; stroke:none;" d="M159 210L154 240L214 234L215 225L204 225L201 235L200 235L202 226L172 227L173 213C167.33 214.882 169 222.009 169 227L161 227L161 210L159 210z"/>
<path style="fill:#745144; stroke:none;" d="M142 214C142.006 223.446 143.378 228.723 138 237C146.878 232.623 145.356 221.763 142 214z"/>
<path style="fill:#eae9e9; stroke:none;" d="M283 215L281 230L282 230L283 215z"/>
<path style="fill:#987c71; stroke:none;" d="M40 216L40 221L41 221L40 216z"/>
<path style="fill:#745144; stroke:none;" d="M64 220L69 217L64 220z"/>
<path style="fill:#987c71; stroke:none;" d="M271.667 216.333L272.333 216.667L271.667 216.333z"/>
<path style="fill:#8b5c38; stroke:none;" d="M168 217L168 227L169 227L168 217z"/>
<path style="fill:#7d5c51; stroke:none;" d="M63 220L62 229L63 229L63 220z"/>
<path style="fill:#745144; stroke:none;" d="M220 223L220 224L223 224L223 232L224 232L224 223L220 223z"/>
<path style="fill:#7d5c51; stroke:none;" d="M209 224L209 225L215 225C214.94 228.583 212.704 233.075 217 234L216 224L209 224z"/>
<path style="fill:#613323; stroke:none;" d="M216 224L216 233C222.379 232.647 222.979 229.886 223 224L216 224z"/>
<path style="fill:#745144; stroke:none;" d="M96 239L101 227L106 227L108 237L109 237L107 225C97.918 225.108 98.7965 231.738 96 239M195 225L195 226L202 226L200 235L201 235L204 225L195 225z"/>
<path style="fill:#b19b93; stroke:none;" d="M45 226L46 227L45 226z"/>
<path style="fill:#c58627; stroke:none;" d="M121 226L121 227L143 227L121 226z"/>
<path style="fill:#8b5c38; stroke:none;" d="M179 226L179 227L187 227L179 226z"/>
<path style="fill:#c6b6b0; stroke:none;" d="M247.667 226.333L248.333 226.667L247.667 226.333z"/>
<path style="fill:#745144; stroke:none;" d="M156 227L152 240C156.091 237.297 157.861 231.564 156 227z"/>
<path style="fill:#d0c2bd; stroke:none;" d="M240.667 228.333L241.333 228.667L240.667 228.333z"/>
<path style="fill:#b19b93; stroke:none;" d="M231.667 230.333L232.333 230.667L231.667 230.333z"/>
<path style="fill:#8f6f64; stroke:none;" d="M55.6667 231.333L56.3333 231.667L55.6667 231.333z"/>
<path style="fill:#a1887e; stroke:none;" d="M226 231L226 232L229 232L226 231z"/>
<path style="fill:#8f6f64; stroke:none;" d="M58.6667 232.333L59.3333 232.667L58.6667 232.333z"/>
<path style="fill:#a1887e; stroke:none;" d="M221.667 232.333L222.333 232.667L221.667 232.333z"/>
<path style="fill:#c6b6b0; stroke:none;" d="M217.667 233.333L218.333 233.667L217.667 233.333z"/>
<path style="fill:#a79088; stroke:none;" d="M65.6667 234.333L66.3333 234.667L65.6667 234.333z"/>
<path style="fill:#a1887e; stroke:none;" d="M210 234L210 235L213 235L210 234z"/>
<path style="fill:#eae9e9; stroke:none;" d="M297 234C300.544 239.773 307.058 239.415 313 238L313 237L297 234M66 235C69.8463 239.162 74.7191 239.557 80 238L66 235z"/>
<path style="fill:#8f6f64; stroke:none;" d="M70.6667 235.333L71.3333 235.667L70.6667 235.333M203 235L203 236L206 236L203 235z"/>
<path style="fill:#bca9a2; stroke:none;" d="M74 236L74 237L77 237L74 236z"/>
<path style="fill:#7d5c51; stroke:none;" d="M124 236L124 237L138 238L138 237L124 236z"/>
<path style="fill:#b19b93; stroke:none;" d="M197 236L197 237L200 237L197 236z"/>
<path style="fill:#bca9a2; stroke:none;" d="M80 237L80 238L83 238L80 237M188 237L188 238L192 238L188 237z"/>
<path style="fill:#a1887e; stroke:none;" d="M87 238L87 239L92 239L87 238z"/>
<path style="fill:#987c71; stroke:none;" d="M179 238L179 239L182 239L179 238z"/>
<path style="fill:#b19b93; stroke:none;" d="M96 239L96 240L100 240L96 239z"/>
<path style="fill:#7d5c51; stroke:none;" d="M100 239L100 240L105 240L100 239z"/>
<path style="fill:#8f6f64; stroke:none;" d="M164 239L164 240L171 240L164 239z"/>
<path style="fill:#bca9a2; stroke:none;" d="M110 240L110 241L118 241L110 240z"/>
<path style="fill:#745144; stroke:none;" d="M118 240L118 241L150 241L118 240z"/>
<path style="fill:#b19b93; stroke:none;" d="M150 240L150 241L158 241L150 240z"/>
</svg>
